<svg xmlns="http://www.w3.org/2000/svg" width="138" viewBox="0 0 138 37.5" height="37.5" version="1.0"><defs><clipPath id="a"><path d="M 9.332031 1.296875 L 44.121094 1.296875 L 44.121094 36.082031 L 9.332031 36.082031 Z M 9.332031 1.296875"/></clipPath></defs><g clip-path="url(#a)"><path fill="#57CBCC" d="M 26.726562 36.082031 C 17.117188 36.082031 9.332031 28.246094 9.332031 18.691406 C 9.332031 9.136719 17.117188 1.296875 26.726562 1.296875 C 36.335938 1.296875 44.121094 9.082031 44.121094 18.691406 C 44.121094 28.300781 36.28125 36.082031 26.726562 36.082031 Z M 26.726562 2.371094 C 17.707031 2.371094 10.40625 9.671875 10.40625 18.691406 C 10.40625 27.710938 17.707031 35.011719 26.726562 35.011719 C 35.746094 35.011719 43.046875 27.710938 43.046875 18.691406 C 43.046875 9.671875 35.691406 2.371094 26.726562 2.371094 Z M 26.726562 2.371094"/></g><g fill="#FFF"><g><g><path d="M 11.90625 -6.34375 C 11.90625 -4.945312 11.632812 -3.773438 11.09375 -2.828125 C 10.5625 -1.890625 9.785156 -1.179688 8.765625 -0.703125 C 7.753906 -0.234375 6.53125 0 5.09375 0 L 1.5625 0 L 1.5625 -12.453125 L 5.484375 -12.453125 C 6.785156 -12.453125 7.914062 -12.21875 8.875 -11.75 C 9.832031 -11.289062 10.578125 -10.609375 11.109375 -9.703125 C 11.640625 -8.804688 11.90625 -7.6875 11.90625 -6.34375 Z M 9.15625 -6.28125 C 9.15625 -7.195312 9.019531 -7.953125 8.75 -8.546875 C 8.488281 -9.140625 8.09375 -9.578125 7.5625 -9.859375 C 7.039062 -10.148438 6.390625 -10.296875 5.609375 -10.296875 L 4.203125 -10.296875 L 4.203125 -2.1875 L 5.34375 -2.1875 C 6.632812 -2.1875 7.59375 -2.53125 8.21875 -3.21875 C 8.84375 -3.90625 9.15625 -4.925781 9.15625 -6.28125 Z M 9.15625 -6.28125" transform="translate(46.796 25.386)"/></g></g></g><g fill="#FFF"><g><g><path d="M 1.5625 0 L 1.5625 -12.453125 L 4.203125 -12.453125 L 4.203125 0 Z M 1.5625 0" transform="translate(59.702 25.386)"/></g></g></g><g fill="#FFF"><g><g><path d="M 6.296875 -7 L 11.234375 -7 L 11.234375 -0.53125 C 10.585938 -0.320312 9.910156 -0.148438 9.203125 -0.015625 C 8.492188 0.109375 7.695312 0.171875 6.8125 0.171875 C 5.570312 0.171875 4.519531 -0.0703125 3.65625 -0.5625 C 2.789062 -1.050781 2.132812 -1.769531 1.6875 -2.71875 C 1.238281 -3.675781 1.015625 -4.851562 1.015625 -6.25 C 1.015625 -7.550781 1.265625 -8.675781 1.765625 -9.625 C 2.265625 -10.582031 3 -11.320312 3.96875 -11.84375 C 4.9375 -12.375 6.125 -12.640625 7.53125 -12.640625 C 8.1875 -12.640625 8.832031 -12.566406 9.46875 -12.421875 C 10.113281 -12.285156 10.695312 -12.101562 11.21875 -11.875 L 10.34375 -9.75 C 9.96875 -9.945312 9.535156 -10.109375 9.046875 -10.234375 C 8.554688 -10.367188 8.046875 -10.4375 7.515625 -10.4375 C 6.742188 -10.4375 6.070312 -10.257812 5.5 -9.90625 C 4.9375 -9.550781 4.5 -9.054688 4.1875 -8.421875 C 3.882812 -7.796875 3.734375 -7.054688 3.734375 -6.203125 C 3.734375 -5.390625 3.84375 -4.664062 4.0625 -4.03125 C 4.28125 -3.40625 4.628906 -2.914062 5.109375 -2.5625 C 5.585938 -2.207031 6.210938 -2.03125 6.984375 -2.03125 C 7.359375 -2.03125 7.671875 -2.046875 7.921875 -2.078125 C 8.179688 -2.117188 8.425781 -2.160156 8.65625 -2.203125 L 8.65625 -4.796875 L 6.296875 -4.796875 Z M 6.296875 -7" transform="translate(65.473 25.386)"/></g></g></g><g fill="#FFF"><g><g><path d="M 1.5625 0 L 1.5625 -12.453125 L 4.203125 -12.453125 L 4.203125 0 Z M 1.5625 0" transform="translate(78.098 25.386)"/></g></g></g><g fill="#FFF"><g><g><path d="M 6.375 0 L 3.734375 0 L 3.734375 -10.265625 L 0.34375 -10.265625 L 0.34375 -12.453125 L 9.75 -12.453125 L 9.75 -10.265625 L 6.375 -10.265625 Z M 6.375 0" transform="translate(83.87 25.386)"/></g></g></g><g fill="#FFF"><g><g><path d="M 9.1875 0 L 8.296875 -2.96875 L 3.75 -2.96875 L 2.84375 0 L 0 0 L 4.390625 -12.515625 L 7.625 -12.515625 L 12.046875 0 Z M 7.65625 -5.1875 L 6.765625 -8.078125 C 6.703125 -8.273438 6.625 -8.523438 6.53125 -8.828125 C 6.4375 -9.128906 6.34375 -9.4375 6.25 -9.75 C 6.15625 -10.0625 6.082031 -10.335938 6.03125 -10.578125 C 5.96875 -10.335938 5.882812 -10.046875 5.78125 -9.703125 C 5.6875 -9.359375 5.59375 -9.035156 5.5 -8.734375 C 5.414062 -8.429688 5.351562 -8.210938 5.3125 -8.078125 L 4.421875 -5.1875 Z M 7.65625 -5.1875" transform="translate(93.966 25.386)"/></g></g></g><g fill="#FFF"><g><g><path d="M 1.5625 0 L 1.5625 -12.453125 L 4.203125 -12.453125 L 4.203125 -2.1875 L 9.265625 -2.1875 L 9.265625 0 Z M 1.5625 0" transform="translate(105.994 25.386)"/></g></g></g><g fill="#FFF"><g><g><path d="M 8.75 0 L 1.5625 0 L 1.5625 -12.453125 L 8.75 -12.453125 L 8.75 -10.296875 L 4.203125 -10.296875 L 4.203125 -7.5625 L 8.421875 -7.5625 L 8.421875 -5.390625 L 4.203125 -5.390625 L 4.203125 -2.1875 L 8.75 -2.1875 Z M 8.75 0" transform="translate(115.844 25.386)"/></g></g></g><g fill="#57CBCC"><g><g><path d="M 3.695312 -16.992188 L 2.660156 -16.992188 L 2.660156 0.0234375 L 9.242188 0.0234375 L 9.242188 -1.011719 L 3.695312 -1.011719 Z M 2.101562 -12.078125 L 1.0625 -12.078125 L 1.0625 0.0234375 L 2.101562 0.0234375 Z M 2.101562 -12.078125" transform="translate(15.262 27.087)"/></g></g></g><g fill="#57CBCC"><g><g><path d="M 10.660156 -17.066406 C 9.445312 -17.066406 8.558594 -17.09375 7.949219 -17.09375 C 6.9375 -17.09375 6 -16.839844 5.191406 -16.359375 C 4.355469 -15.851562 3.644531 -15.21875 3.089844 -14.457031 C 2.480469 -13.671875 2.027344 -12.789062 1.695312 -11.824219 C 1.34375 -10.8125 1.140625 -9.800781 1.0625 -8.785156 C 1.039062 -8.507812 1.039062 -8.253906 1.039062 -8 C 1.039062 -7.242188 1.113281 -6.480469 1.265625 -5.746094 C 1.46875 -4.734375 1.875 -3.796875 2.429688 -2.988281 C 2.960938 -2.152344 3.695312 -1.46875 4.632812 -0.9375 C 5.546875 -0.378906 6.660156 -0.0742188 7.949219 -0.0234375 L 11.039062 -0.0234375 L 11.039062 -1.0625 L 7.976562 -1.0625 C 6.835938 -1.113281 5.898438 -1.367188 5.140625 -1.824219 C 4.355469 -2.277344 3.722656 -2.859375 3.265625 -3.570312 C 2.785156 -4.253906 2.457031 -5.0625 2.277344 -5.976562 C 2.078125 -6.863281 2.027344 -7.773438 2.101562 -8.734375 C 2.152344 -9.648438 2.355469 -10.558594 2.660156 -11.46875 C 2.960938 -12.355469 3.394531 -13.140625 3.898438 -13.824219 C 4.40625 -14.507812 5.011719 -15.039062 5.699219 -15.445312 C 6.355469 -15.851562 7.117188 -16.054688 7.949219 -16.054688 C 9.140625 -16.054688 10.027344 -16.027344 10.636719 -16.027344 C 10.636719 -16.484375 10.660156 -16.839844 10.660156 -17.066406 Z M 4.988281 -12.660156 L 4.152344 -13.269531 C 3.644531 -12.585938 3.265625 -11.800781 3.011719 -10.914062 C 2.761719 -10.027344 2.609375 -9.117188 2.609375 -8.203125 C 2.609375 -7.292969 2.734375 -6.40625 2.988281 -5.546875 C 3.242188 -4.683594 3.644531 -3.925781 4.230469 -3.316406 C 4.558594 -3.621094 4.8125 -3.847656 4.988281 -4.027344 C 4.53125 -4.480469 4.179688 -5.089844 3.976562 -5.847656 C 3.746094 -6.582031 3.644531 -7.367188 3.644531 -8.203125 C 3.644531 -9.015625 3.773438 -9.824219 4.027344 -10.609375 C 4.230469 -11.394531 4.558594 -12.078125 4.988281 -12.660156 Z M 4.988281 -12.660156" transform="translate(25.643 27.087)"/></g></g></g></svg>