<?xml version="1.0" encoding="UTF-8"?>
<svg xmlns="http://www.w3.org/2000/svg" xmlns:xlink="http://www.w3.org/1999/xlink" width="39pt" height="38.999999pt" viewBox="0 0 39 38.999999" version="1.2">
<defs>
<clipPath id="clip1">
  <path d="M 3.898438 4.519531 L 34.648438 4.519531 L 34.648438 35.269531 L 3.898438 35.269531 Z M 3.898438 4.519531 "/>
</clipPath>
</defs>
<g id="surface1">
<g clip-path="url(#clip1)" clip-rule="nonzero">
<path style=" stroke:none;fill-rule:nonzero;fill:rgb(34.118652%,79.60968%,79.998779%);fill-opacity:1;" d="M 19.273438 4.519531 C 10.800781 4.519531 3.898438 11.417969 3.898438 19.894531 C 3.898438 28.371094 10.800781 35.269531 19.273438 35.269531 C 27.75 35.269531 34.648438 28.371094 34.648438 19.894531 C 34.648438 11.417969 27.75 4.519531 19.273438 4.519531 Z M 19.273438 7.191406 C 26.304688 7.191406 31.976562 12.863281 31.976562 19.894531 C 31.976562 26.925781 26.304688 32.59375 19.273438 32.59375 C 12.246094 32.59375 6.574219 26.925781 6.574219 19.894531 C 6.574219 12.863281 12.246094 7.191406 19.273438 7.191406 Z M 19.273438 7.191406 "/>
</g>
<path style="fill:none;stroke-width:0.840646;stroke-linecap:butt;stroke-linejoin:miter;stroke:rgb(34.118652%,79.60968%,79.998779%);stroke-opacity:1;stroke-miterlimit:4;" d="M 3.835999 9.371411 L 2.757504 9.371411 L 2.757504 27.02708 L 9.586584 27.02708 L 9.586584 25.948586 L 3.835999 25.948586 Z M 2.178698 14.468236 L 1.104367 14.468236 L 1.104367 27.02708 L 2.178698 27.02708 Z M 2.178698 14.468236 " transform="matrix(0.938084,0,0,0.938084,10.514792,2.454924)"/>
<path style="fill:none;stroke-width:0.840646;stroke-linecap:butt;stroke-linejoin:miter;stroke:rgb(34.118652%,79.60968%,79.998779%);stroke-opacity:1;stroke-miterlimit:4;" d="M 11.059813 9.292293 C 9.798099 9.292293 8.877839 9.267309 8.249064 9.267309 C 7.199717 9.267309 6.225324 9.529646 5.384182 10.029334 C 4.518054 10.554007 3.781013 11.211931 3.206371 11.998941 C 2.573432 12.815099 2.102892 13.735359 1.761438 14.730573 C 1.390836 15.784083 1.182632 16.83343 1.103515 17.882776 C 1.07853 18.174261 1.07853 18.436598 1.07853 18.698934 C 1.07853 19.485944 1.157647 20.272954 1.311718 21.034979 C 1.524086 22.08849 1.944657 23.058719 2.523463 23.899862 C 3.073121 24.765989 3.835146 25.478045 4.805375 26.027703 C 5.754784 26.606509 6.908232 26.922979 8.249064 26.972948 L 11.4554 26.972948 L 11.4554 25.898617 L 8.274048 25.898617 C 7.091452 25.844484 6.121223 25.582147 5.334213 25.107443 C 4.518054 24.636903 3.860131 24.033112 3.389591 23.296071 C 2.889902 22.588179 2.548448 21.747036 2.365229 20.801791 C 2.152861 19.881531 2.102892 18.936287 2.182009 17.936909 C 2.231978 16.991664 2.444346 16.04642 2.756652 15.101175 C 3.073121 14.180915 3.518677 13.364757 4.047514 12.656864 C 4.572187 11.948972 5.200962 11.39515 5.908855 10.974579 C 6.591763 10.554007 7.382937 10.345804 8.249064 10.345804 C 9.481629 10.345804 10.40189 10.370788 11.034829 10.370788 C 11.034829 9.900248 11.059813 9.529646 11.059813 9.292293 Z M 5.175978 13.864446 L 4.309851 13.235671 C 3.781013 13.943563 3.389591 14.759721 3.127254 15.675817 C 2.864917 16.596077 2.706683 17.541322 2.706683 18.490731 C 2.706683 19.435975 2.835769 20.352071 3.098105 21.247347 C 3.360442 22.138459 3.781013 22.929633 4.388968 23.558408 C 4.730422 23.241938 4.992759 23.00875 5.175978 22.821367 C 4.701274 22.350826 4.334835 21.717887 4.122467 20.930878 C 3.889279 20.168852 3.781013 19.356858 3.781013 18.490731 C 3.781013 17.649588 3.914264 16.808445 4.1766 15.992287 C 4.388968 15.180293 4.730422 14.468236 5.175978 13.864446 Z M 5.175978 13.864446 " transform="matrix(0.938084,0,0,0.938084,17.398405,2.454924)"/>
</g>
</svg>
