<svg xmlns="http://www.w3.org/2000/svg" width="39" viewBox="0 0 39 39" height="39" version="1.0"><defs><clipPath id="a"><path d="M 1.824219 1.824219 L 37.074219 1.824219 L 37.074219 37.074219 L 1.824219 37.074219 Z M 1.824219 1.824219"/></clipPath></defs><g clip-path="url(#a)"><path fill="#57CBCC" d="M 19.449219 37.074219 C 9.710938 37.074219 1.824219 29.132812 1.824219 19.449219 C 1.824219 9.765625 9.710938 1.824219 19.449219 1.824219 C 29.1875 1.824219 37.074219 9.710938 37.074219 19.449219 C 37.074219 29.1875 29.132812 37.074219 19.449219 37.074219 Z M 19.449219 2.914062 C 10.3125 2.914062 2.914062 10.3125 2.914062 19.449219 C 2.914062 28.589844 10.3125 35.988281 19.449219 35.988281 C 28.589844 35.988281 35.988281 28.589844 35.988281 19.449219 C 35.988281 10.3125 28.535156 2.914062 19.449219 2.914062 Z M 19.449219 2.914062"/></g><g fill="#57CBCC"><g><g><path d="M 3.746094 -17.21875 L 2.695312 -17.21875 L 2.695312 0.0273438 L 9.367188 0.0273438 L 9.367188 -1.027344 L 3.746094 -1.027344 Z M 2.128906 -12.238281 L 1.078125 -12.238281 L 1.078125 0.0273438 L 2.128906 0.0273438 Z M 2.128906 -12.238281" transform="translate(7.832 27.957)"/></g></g></g><g fill="#57CBCC"><g><g><path d="M 10.800781 -17.292969 C 9.570312 -17.292969 8.671875 -17.320312 8.058594 -17.320312 C 7.03125 -17.320312 6.082031 -17.0625 5.261719 -16.574219 C 4.414062 -16.0625 3.695312 -15.421875 3.128906 -14.652344 C 2.515625 -13.855469 2.050781 -12.957031 1.71875 -11.984375 C 1.359375 -10.957031 1.15625 -9.929688 1.078125 -8.902344 C 1.050781 -8.621094 1.050781 -8.363281 1.050781 -8.109375 C 1.050781 -7.339844 1.128906 -6.570312 1.28125 -5.824219 C 1.488281 -4.796875 1.898438 -3.847656 2.464844 -3.027344 C 3.003906 -2.179688 3.746094 -1.488281 4.695312 -0.949219 C 5.621094 -0.386719 6.75 -0.078125 8.058594 -0.0273438 L 11.1875 -0.0273438 L 11.1875 -1.078125 L 8.082031 -1.078125 C 6.929688 -1.128906 5.980469 -1.386719 5.207031 -1.847656 C 4.414062 -2.308594 3.773438 -2.898438 3.308594 -3.617188 C 2.824219 -4.3125 2.488281 -5.132812 2.308594 -6.054688 C 2.105469 -6.953125 2.050781 -7.878906 2.128906 -8.851562 C 2.179688 -9.777344 2.386719 -10.699219 2.695312 -11.625 C 3.003906 -12.523438 3.4375 -13.316406 3.953125 -14.011719 C 4.464844 -14.703125 5.082031 -15.242188 5.773438 -15.652344 C 6.441406 -16.0625 7.210938 -16.269531 8.058594 -16.269531 C 9.261719 -16.269531 10.160156 -16.242188 10.777344 -16.242188 C 10.777344 -16.703125 10.800781 -17.0625 10.800781 -17.292969 Z M 5.054688 -12.828125 L 4.207031 -13.445312 C 3.695312 -12.753906 3.308594 -11.957031 3.054688 -11.058594 C 2.796875 -10.160156 2.644531 -9.238281 2.644531 -8.3125 C 2.644531 -7.390625 2.769531 -6.492188 3.027344 -5.621094 C 3.285156 -4.746094 3.695312 -3.976562 4.285156 -3.359375 C 4.617188 -3.667969 4.875 -3.898438 5.054688 -4.078125 C 4.59375 -4.542969 4.234375 -5.15625 4.027344 -5.925781 C 3.796875 -6.671875 3.695312 -7.464844 3.695312 -8.3125 C 3.695312 -9.132812 3.824219 -9.957031 4.078125 -10.75 C 4.285156 -11.546875 4.617188 -12.238281 5.054688 -12.828125 Z M 5.054688 -12.828125" transform="translate(18.352 27.957)"/></g></g></g></svg>